<svg xmlns="http://www.w3.org/2000/svg" viewBox="0 0 98.15 100.25"><defs><style>.cls-1{fill:#da030b;}.cls-2{fill:#b40501;}.cls-3{fill:#976f22;}.cls-4{fill:#7e0303;}.cls-5{fill:#ffbaad;}.cls-6{fill:#fbaeab;}</style></defs><g id="Layer_2" data-name="Layer 2"><g id="Apple"><path class="cls-1" d="M49.11,98.75c-23.45,0-45.65-21.54-47.5-46.11a35.69,35.69,0,0,1,9.73-27.57c8.89-9.59,23-15.32,37.77-15.32,14.4,0,27.77,5.32,36.69,14.58A38,38,0,0,1,96.62,52.7C95.67,77.66,73.92,98.75,49.11,98.75Z"/><path class="cls-2" d="M49.11,11.25c14,0,27,5.15,35.61,14.12a36.51,36.51,0,0,1,10.4,27.27c-.92,24.18-22,44.61-46,44.61-10.46,0-21.51-4.73-30.32-13A48.73,48.73,0,0,1,3.11,52.53a34.23,34.23,0,0,1,9.33-26.44c8.61-9.29,22.33-14.84,36.67-14.84m0-3c-27.06,0-51,18.35-49,44.5,2,26.5,26,47.5,49,47.5,25,0,48-21,49-47.5,1-26.21-21.93-44.5-49-44.5Z"/><path class="cls-3" d="M52.09,17.25H50.23a1,1,0,0,1-1-1.1C50,9.46,51.58,3.9,54.89.48a1.16,1.16,0,0,1,.54-.3c2.28-.47,3.77,0,4.44,1.39a1,1,0,0,1-.14,1.09c-2.33,2.1-7.21,9.69-6.65,13.61A.94.94,0,0,1,52.09,17.25Z"/><path class="cls-4" d="M30.16,52.26c5.79,0,5.8-9,0-9s-5.8,9,0,9Z"/><path class="cls-4" d="M71.9,52.26c5.79,0,5.8-9,0-9s-5.8,9,0,9Z"/><path class="cls-5" d="M49.69,61.41c4.5,0,4.51-7,0-7s-4.51,7,0,7Z"/><path class="cls-4" d="M48.69,53A27.77,27.77,0,0,0,43,59.51a1.51,1.51,0,0,0,.9,2.2,24,24,0,0,0,5.35-.14,33.88,33.88,0,0,1,5.33.16,1.5,1.5,0,0,0,1.5-1.5,4.16,4.16,0,0,0-1-2.15c-.4-.59-.82-1.19-1.24-1.78q-1.24-1.77-2.57-3.49a1.55,1.55,0,0,0-2.05-.54,1.5,1.5,0,0,0-.54,2c.8,1,1.58,2.1,2.34,3.17.37.51.73,1,1.08,1.54l.56.81.27.41.11.16c.16.28.17.22.05-.18l1.5-1.5a33.67,33.67,0,0,0-5.12-.17c-.83,0-1.66.11-2.49.2a9.67,9.67,0,0,1-2.27.06l.89,2.2a25.14,25.14,0,0,1,5.27-5.93,1.5,1.5,0,0,0,0-2.12,1.54,1.54,0,0,0-2.12,0Z"/><path class="cls-6" d="M47.35,26.87c3.86,0,3.87-6,0-6s-3.87,6,0,6Z"/><path class="cls-6" d="M33.4,22a13.65,13.65,0,0,0-11.78,6.3c-2.13,3.24,3.07,6.25,5.18,3A7.48,7.48,0,0,1,33.4,28c3.87.09,3.86-5.91,0-6Z"/></g></g></svg>