<svg xmlns="http://www.w3.org/2000/svg" viewBox="0 0 29 40.25"><defs><style>.cls-1{fill:#e60e0a;}.cls-2{fill:#ac1b04;}.cls-3{fill:#8ad563;}.cls-3,.cls-4{stroke:#6ea63f;}.cls-3,.cls-4,.cls-5{stroke-miterlimit:10;}.cls-4,.cls-5{fill:none;stroke-linecap:round;}.cls-4{stroke-width:3.5px;}.cls-5{stroke:#8ad563;stroke-width:1.5px;}.cls-6{fill:#b11400;}</style></defs><g id="Layer_2" data-name="Layer 2"><g id="Cherry"><circle class="cls-1" cx="14.5" cy="25.75" r="13.5"/><path class="cls-2" d="M14.5,13.25A12.5,12.5,0,1,1,2,25.75a12.52,12.52,0,0,1,12.5-12.5m0-2A14.5,14.5,0,1,0,29,25.75a14.5,14.5,0,0,0-14.5-14.5Z"/><path class="cls-3" d="M16.5,5.75s2-4,6-2l4,2s-3,4-6,3A6.93,6.93,0,0,1,16.5,5.75Z"/><path class="cls-4" d="M18.5,1.75c-3.2,3.4-4.11,7.34-2,12"/><path class="cls-5" d="M18.5,1.75c-3.2,3.4-4.11,7.34-2,12"/><path class="cls-6" d="M10.3,30.46a7.34,7.34,0,0,0,4.43,1,15.81,15.81,0,0,0,4.6-1.4,1,1,0,0,0,.36-1.37,1,1,0,0,0-1.37-.36,12.61,12.61,0,0,1-3.59,1.13,5.46,5.46,0,0,1-3.42-.75,1,1,0,0,0-1,1.72Z"/><path class="cls-6" d="M9.18,23.61c.1-.13.2-.27.31-.4s0-.05,0,0l.06-.07.17-.22c.21-.27.43-.53.65-.79l.66-.78c.11-.11.21-.23.31-.34l.19-.21.07-.07c.1-.1.08-.09-.06,0l-.5.14h.06l-.51-.14-.21-.23.08.12.14.2.25.36.52.77,1.06,1.52a1,1,0,0,0,1.37.36,1,1,0,0,0,.35-1.36L12.8,20.57l-.63-.93a1.76,1.76,0,0,0-.56-.59,1.12,1.12,0,0,0-1.12,0,3.84,3.84,0,0,0-.83.83l-.73.84c-.51.62-1,1.25-1.48,1.89A1,1,0,0,0,7.81,24a1,1,0,0,0,1.37-.36Z"/><path class="cls-6" d="M17.93,23.54l.31-.41c0-.06,0-.05,0,0l.05-.08.18-.21c.21-.27.42-.54.64-.8s.44-.52.67-.77l.31-.35.19-.21.06-.06c.1-.11.08-.1,0,0l-.51.13h.06l-.5-.13-.22-.23.09.12.13.2.25.36.53.76,1.05,1.53a1,1,0,0,0,1.37.36,1,1,0,0,0,.36-1.37l-1.33-1.93-.64-.92a1.86,1.86,0,0,0-.55-.6,1.15,1.15,0,0,0-1.12,0,3.84,3.84,0,0,0-.83.83c-.25.28-.49.56-.73.85-.51.61-1,1.24-1.48,1.88a1,1,0,0,0,.36,1.37,1,1,0,0,0,1.36-.36Z"/></g></g></svg>