<svg xmlns="http://www.w3.org/2000/svg" viewBox="0 0 59.5 65.5"><defs><style>.cls-1{fill:#f3b910;}.cls-2{fill:#c47e18;}.cls-3{fill:#ffe9bf;}.cls-4{fill:#ba6b00;}</style></defs><g id="Layer_2" data-name="Layer 2"><g id="Dekopon"><path class="cls-1" d="M29.75,64.25c-.63,0-1.27,0-1.91-.06A28.5,28.5,0,0,1,20.59,8.76a2.25,2.25,0,0,0,1.5-2.53L21,1.5a.21.21,0,0,1,.07-.16.23.23,0,0,1,.19-.09H38.7a.23.23,0,0,1,.19.09.21.21,0,0,1,.06.2L37.89,6.35a2.25,2.25,0,0,0,1.46,2.56,28.58,28.58,0,0,1,18.9,26.84,28.51,28.51,0,0,1-28.5,28.5Z"/><path class="cls-2" d="M37.46,2.5l-.79,3.59v.08a3.5,3.5,0,0,0,2.28,3.92A27.25,27.25,0,0,1,29.75,63q-.91,0-1.83-.06A27.25,27.25,0,0,1,21,9.94,3.48,3.48,0,0,0,23.32,6V5.92L22.54,2.5H37.46M38.7,0H21.3a1.5,1.5,0,0,0-1.48,1.77l1,4.68a1,1,0,0,1-.68,1.12,29.76,29.76,0,0,0,7.58,57.87c.67,0,1.33.06,2,.06a29.75,29.75,0,0,0,10-57.76,1,1,0,0,1-.66-1.12l1.07-4.85A1.5,1.5,0,0,0,38.7,0Z"/><path class="cls-3" d="M27.93,32.8l-1.18,4.66a1,1,0,0,0,1,1.26l2.65.05c.43,0,.86,0,1.29,0a1.33,1.33,0,0,0,1.36-1,4.23,4.23,0,0,0-.1-1.5l-.19-1.35-.19-1.3a2.25,2.25,0,0,0-.47-1.42,1.93,1.93,0,0,0-1.59-.29c-.57,0-1.2,0-1.59.52A2.6,2.6,0,0,0,28.6,34c0,.45,0,.89,0,1.34a4,4,0,0,0,.2,1.37,1.4,1.4,0,0,0,1.57.82,1.66,1.66,0,0,0,1.1-.83,2.13,2.13,0,0,0,.11-1.59,7.15,7.15,0,0,0-.36-1.22,1.32,1.32,0,0,0-1.55-.73,1.51,1.51,0,0,0-1,1.25c-.08.49-.14,1-.21,1.47a1,1,0,0,0,.7,1.23l.36.09a1,1,0,1,0,.53-1.92l-.36-.1.7,1.23.12-.87.06-.41a2.83,2.83,0,0,0,.08-.4c0-.11-.13.18,0,0a.71.71,0,0,1-.8.31l-.31-.19c-.09-.13-.12-.16-.08-.09s-.05,0,0,0a1.08,1.08,0,0,0,.07.27l.09.41c0,.13.06.25.1.37s0-.23,0,0c0,.06,0,.19,0,0,0,.15,0,0,0-.07-.09.2.14-.15,0,0a.49.49,0,0,1,.23-.14c-.08,0-.07,0,0,0a.55.55,0,0,1,.43.08l.21.22.05.12,0-.07q0-.16,0,.06a1.42,1.42,0,0,1,0-.36c0-.32,0-.64,0-1s0-.61,0-.91a3.1,3.1,0,0,0,0-.43v-.1c-.83.54-1.06.78-.67.75a2.85,2.85,0,0,0,.29,0c.28,0,.58,0,.87-.06h0c.32,0,.1-.16-.65-.51a1.66,1.66,0,0,0,0,.22l.08.53L30.86,36l.12.86c0,.17,0,.33.07.49s0,0,0,0v.13l0-.14.51-.48c.16,0,.19,0,.07,0h-.77l-1.05,0-2.12,0,1,1.27,1.19-4.66a1,1,0,0,0-1.93-.53Z"/><path class="cls-4" d="M27.15,33l3.71-.15.87,0a1.94,1.94,0,0,0,.42,0c.23-.1-.51-.25-.46-.4a1,1,0,0,0,.06.23q.22.91.39,1.83A25.76,25.76,0,0,1,32.49,38c0,.14,0,.28,0,.43a1,1,0,0,0,0,.17s.31-.44.31-.44.07,0,.08,0-.16,0-.18,0l-.52,0-1.91,0c-1.43,0-2.85,0-4.27,0l1,1a6.14,6.14,0,0,1,.26-1.46q.21-.88.39-1.77c.24-1.15.44-2.31.62-3.48a1,1,0,0,0-.69-1.23,1,1,0,0,0-1.23.7c-.19,1.22-.41,2.42-.66,3.62q-.18.88-.39,1.77a7.23,7.23,0,0,0-.3,1.85,1,1,0,0,0,1,1c1.47,0,2.94,0,4.42,0l2.28-.06c.84,0,1.64-.38,1.76-1.31a10.12,10.12,0,0,0,0-2.13c-.06-.76-.16-1.51-.27-2.26s-.25-1.41-.42-2.11a2.14,2.14,0,0,0-.45-1.06,1.54,1.54,0,0,0-1.19-.45c-1.64,0-3.3.13-4.94.2a1,1,0,0,0-1,1,1,1,0,0,0,1,1Z"/><path class="cls-4" d="M42.5,35.33c3.38,0,3.38-5.25,0-5.25s-3.38,5.25,0,5.25Z"/><path class="cls-4" d="M16.59,35.2C20,35.2,20,30,16.59,30s-3.39,5.25,0,5.25Z"/><path class="cls-3" d="M42.5,34.2a1.5,1.5,0,0,0,0-3,1.5,1.5,0,0,0,0,3Z"/><path class="cls-3" d="M16.59,34.07a1.5,1.5,0,0,0,0-3,1.5,1.5,0,0,0,0,3Z"/></g></g></svg>