<svg xmlns="http://www.w3.org/2000/svg" viewBox="0 0 52.16 52.63"><defs><style>.cls-1{fill:#b8e14c;stroke:#567c00;stroke-miterlimit:10;}.cls-2{fill:#a76cff;}.cls-3{fill:#65239f;}.cls-4{fill:#5216b6;}.cls-5{fill:#edb8ed;}</style></defs><g id="Layer_2" data-name="Layer 2"><g id="Grapes"><path class="cls-1" d="M18.31,5.23c-3-3.64-9.55-3-9.76-2.86C6.69,3.59,8.27,5,4.69,5.59c-6.38,1-3.38,4,0,5.22C5.76,11.2,3,13.51,4,15.32c1.28,2.27,14.28,3.77,14.28,3.77S20.51,7.9,18.31,5.23Z"/><path class="cls-2" d="M37.82,51.63a12.89,12.89,0,0,1-6.87-2l-.53-.33-.53.33a10.31,10.31,0,0,1-5.41,1.52,10.19,10.19,0,0,1-7.25-3l-.27-.3-.31-.34-.47,0c-.24,0-.47,0-.71,0A12.88,12.88,0,0,1,3.12,30.93l.14-.47L3,30.06a10.3,10.3,0,0,1,1-13.31,10,10,0,0,1,7.14-2.93,10.67,10.67,0,0,1,4.73,1.11l1.73.86-.3-1.91A11.21,11.21,0,0,1,28.28,1a10.48,10.48,0,0,1,7.47,3.07A10.26,10.26,0,0,1,37.38,6.2l.28.47.54,0A12.88,12.88,0,0,1,50.27,22l-.06.3.12.28a10.32,10.32,0,0,1-.73,9.5l-.29.46.24.5A13,13,0,0,1,37.82,51.63Z"/><path class="cls-3" d="M28.28,2a9.51,9.51,0,0,1,6.77,2.78,9.63,9.63,0,0,1,1.47,1.93l.55.94,1.08,0A11.89,11.89,0,0,1,49.29,21.81l-.12.6.24.56a9.29,9.29,0,0,1-.66,8.58l-.58.93.48,1A12,12,0,0,1,31.48,48.81l-1.05-.65-1.06.64a9.3,9.3,0,0,1-11.43-1.32l-.09-.09-.15-.18-.64-.69-.94,0c-.21,0-.43,0-.65,0A11.89,11.89,0,0,1,4.08,31.21l.28-.93-.57-.8a9.31,9.31,0,0,1,.85-12,9,9,0,0,1,6.44-2.64,9.55,9.55,0,0,1,4.28,1l3.48,1.72-.61-3.83A10.21,10.21,0,0,1,28.28,2m0-2a12.23,12.23,0,0,0-12,14,11.61,11.61,0,0,0-5.17-1.21A11.06,11.06,0,0,0,3.23,16a11.34,11.34,0,0,0-1.07,14.6,13.89,13.89,0,0,0,13.31,18c.25,0,.51,0,.76,0,.1.11.19.22.29.32a11.32,11.32,0,0,0,13.9,1.62,14,14,0,0,0,20-17.9,11.32,11.32,0,0,0,.8-10.43,13.87,13.87,0,0,0-13-16.48,12,12,0,0,0-1.79-2.34A11.52,11.52,0,0,0,28.28,0Z"/><path class="cls-4" d="M30.56,17.16c-.18.85-.38,1.68-.63,2.51a1.52,1.52,0,0,0,0,.79,1.53,1.53,0,0,0,.23.75,1.55,1.55,0,0,0,.52.56,1.45,1.45,0,0,0,.68.36,2.06,2.06,0,0,0,1.54-.2,2.16,2.16,0,0,0,.92-1.2c.24-.83.45-1.66.62-2.5a1.46,1.46,0,0,0,0-.8,1.41,1.41,0,0,0-.24-.74,1.47,1.47,0,0,0-.51-.57,1.58,1.58,0,0,0-.68-.35,2,2,0,0,0-1.54.2,2,2,0,0,0-.92,1.19Z"/><path class="cls-4" d="M17.26,32.52h2.29a1.43,1.43,0,0,0,.77-.17,1.74,1.74,0,0,0,1.06-1.06,1.43,1.43,0,0,0,.17-.77A2,2,0,0,0,21,29.11a2.08,2.08,0,0,0-1.42-.59H17.26a1.44,1.44,0,0,0-.77.18,1.44,1.44,0,0,0-.65.41,1.56,1.56,0,0,0-.41.64,1.47,1.47,0,0,0-.17.77,2,2,0,0,0,.58,1.42,2.07,2.07,0,0,0,1.42.58Z"/><path class="cls-5" d="M28.6,27.61a9.88,9.88,0,0,1,1.14,1.1L30,29c0,.05.16.17,0,0a.58.58,0,0,1,.1.12c.07.1.13.21.21.31l0,.06a.54.54,0,0,1,0-.22l0-.13a.65.65,0,0,1,0,.13s0,.21,0,.06,0,0,0,0-.18.23-.17.26.16-.18,0-.05l-.13.13-.09.09c-.17.15,0,0,0,0s-.22.15-.26.17-.15,0-.17.08.23-.08.07,0l-.3.08c-.16.05.06,0,.09,0a1,1,0,0,0-.25,0h-.13c-.22,0,.19,0,.05,0L28.68,30A1.89,1.89,0,0,0,28.5,30s.19.1.06,0l-.33-.2c-.18-.11.13.12,0,0l-.12-.11-.09-.09,0-.05c-.07-.08-.06-.06,0,.06a2.92,2.92,0,0,0-.17-.27l-.06-.11a.37.37,0,0,1,.06.25l-.21.48c-.16.18-.08.07,0,0l.15-.08.38-.21.83-.47a5.32,5.32,0,0,0,.66-.37.67.67,0,0,1-1-.38c.05.16,0,0,0-.07l0-.13a.93.93,0,0,1,0,.13l0-.12a.75.75,0,0,1-.07.12l.06-.09-.05.05-.1.1c.1-.08.11-.09,0,0s-.23.21-.3.2l.1,0c.71.47,1,.56.79.27,0-.08,0-.08,0,0h0c0-.05,0-.09,0-.14-.06-.25,0,.19,0,0a.49.49,0,0,0,0-.12s0-.29,0-.11,0,0,0-.05a1.09,1.09,0,0,1,.05-.17c.06-.2-.09.16,0,0l.1-.18c.09-.15,0,.05-.05.05s.15-.15.17-.17a1,1,0,0,0,0-1.42,1,1,0,0,0-1.41,0,2.7,2.7,0,0,0-.85,2.1,2.57,2.57,0,0,0,.35,1.23,1.33,1.33,0,0,0,1.82.44A2.19,2.19,0,0,0,30.64,28a1.34,1.34,0,0,0-1.57-1,2.8,2.8,0,0,0-.66.3l-.56.32-1.05.59a2.17,2.17,0,0,0-.56.39,1.27,1.27,0,0,0-.35,1,2.93,2.93,0,0,0,1.47,2A3.31,3.31,0,0,0,31.51,31a3.46,3.46,0,0,0,.67-1.2,1.79,1.79,0,0,0-.37-1.63A11.3,11.3,0,0,0,30,26.19a1,1,0,0,0-1.42,0,1,1,0,0,0,0,1.42Z"/><path class="cls-4" d="M27.64,25c-.1.44-.12.88-.18,1.32a4.15,4.15,0,0,1-.11.48,2.78,2.78,0,0,1-.15.3v0s-.14.17,0,0l-.09,0c.07,0,.07,0,0,0a1.41,1.41,0,0,1-.29,0,2.33,2.33,0,0,0-1.38.14,2,2,0,0,0-.82,2.45A7.85,7.85,0,0,0,25.94,32,4.44,4.44,0,0,0,28,33.69a4.13,4.13,0,0,0,2.74-.32,3.8,3.8,0,0,0,2-1.59,6.17,6.17,0,0,0,.75-2.47,3.32,3.32,0,0,0-1.22-2.55,31.32,31.32,0,0,0-2.46-2,1,1,0,0,0-1.37.35,1,1,0,0,0,.36,1.37c.58.45,1.16.9,1.71,1.38a5.51,5.51,0,0,1,.66.62,1.39,1.39,0,0,1,.3.5c.06.18,0,.11,0,.05a1.13,1.13,0,0,1,0,.26c0,.08-.06.26-.09.37-.09.3-.17.62-.29.91a1.79,1.79,0,0,1-.33.48,2.39,2.39,0,0,1-.71.43,2.44,2.44,0,0,1-1.61.24,3.61,3.61,0,0,1-1.13-1.11,4.84,4.84,0,0,1-.9-1.65c0-.14.05-.05,0,0a1.36,1.36,0,0,1-.17.12l.31,0a3.43,3.43,0,0,0,.56,0A2.29,2.29,0,0,0,29,27.91a9.31,9.31,0,0,0,.53-2.38,1,1,0,0,0-.7-1.23,1,1,0,0,0-1.23.7Z"/></g></g></svg>