<svg xmlns="http://www.w3.org/2000/svg" viewBox="0 0 187 189"><defs><style>.cls-1{fill:#85dc1e;}.cls-2{fill:#418e0e;}.cls-3{fill:#227f06;}.cls-4{fill:#1c880e;}.cls-5{fill:#fafde8;}</style></defs><g id="Layer_2" data-name="Layer 2"><g id="Melon"><ellipse class="cls-1" cx="93.5" cy="94.5" rx="91" ry="92"/><path class="cls-2" d="M93.5,5C142.3,5,182,45.15,182,94.5S142.3,184,93.5,184c-24,0-46.26-8.88-62.6-25C14.2,142.53,5,119.63,5,94.5s9.2-48,25.9-64.5C47.24,13.88,69.47,5,93.5,5m0-5C41.86,0,0,39,0,94.5S41.86,189,93.5,189,187,146.69,187,94.5,145.14,0,93.5,0Z"/><path class="cls-3" d="M175.18.67c-1.27-.72-3.41-1-7,.25a1.68,1.68,0,0,0-.42.22A8.11,8.11,0,0,0,165.21,4a1.66,1.66,0,0,1-1.33,1c-2.07.23-6.38,1.17-7.88,4.92-.32.26-.67,3.24.64,4s5.16-2.82,6.13-3.77a1.55,1.55,0,0,1,.58-.37c1.51-.56,6.79-2-6.35,11.14l-1.35,1.35a1.66,1.66,0,0,1-2.58-.28c-.95-1.55-2.64-3.28-5.07-2.07-3.6,1.8-5.58,6.85-5.94,7.83a2.11,2.11,0,0,0-.09.36c-.19,1.51-1.09,11.74,10,10.81,9.92-.83,8.52-7.12,7.74-9.27a1.66,1.66,0,0,1,.19-1.53c2.12-3,10.51-14,10.1-20.67,0-.53-.29-.52-.26-.81.11-1.36,2.8-2.09,4.94-3C176.05,3.11,176.45,1.4,175.18.67Z"/><path class="cls-4" d="M53.74,87.4c12.13,0,12.15-18.85,0-18.85s-12.15,18.85,0,18.85Z"/><path class="cls-4" d="M134.94,87.4c12.13,0,12.15-18.85,0-18.85s-12.15,18.85,0,18.85Z"/><path class="cls-4" d="M81.26,104.43c5.57-1.73,11-3.91,14-9.28h-6a17.75,17.75,0,0,0,11.58,8.24c4.36.93,6.22-5.76,1.84-6.69a10.8,10.8,0,0,1-7.42-5.06,3.51,3.51,0,0,0-6,0c-2,3.68-6,4.92-9.82,6.09-4.25,1.32-2.44,8,1.85,6.7Z"/><path class="cls-5" d="M165.56,130.26a33.09,33.09,0,0,1-8,11.34l6.63,3.87a15.85,15.85,0,0,1,5.77-10c1.65-1.36,1.41-4.2,0-5.61a4.07,4.07,0,0,0-5.62,0,22.42,22.42,0,0,0-7.8,13.47c-.64,3.81,3.56,6.71,6.63,3.86a38.65,38.65,0,0,0,9.22-12.95c.86-2,.59-4.26-1.42-5.43-1.68-1-4.57-.56-5.43,1.42Z"/></g></g></svg>