<svg xmlns="http://www.w3.org/2000/svg" viewBox="0 0 137.09 134"><defs><style>.cls-1{fill:#f8acae;}.cls-2{fill:#dc675d;}.cls-3{fill:#a30816;}.cls-4{fill:#ffd3d6;}.cls-5{fill:#e38583;}</style></defs><g id="Layer_2" data-name="Layer 2"><g id="Peach"><path class="cls-1" d="M68.09,132.25c-17.66,0-35.39-8.11-48.66-22.26C7.5,97.27.92,81.24,1.84,67.11,3,49.23,10.13,32.78,21.94,20.8a64.25,64.25,0,0,1,46.15-19C105.17,1.75,135.34,31,135.34,67S105.17,132.25,68.09,132.25Z"/><path class="cls-2" d="M68.09,3.5c36.12,0,65.5,28.49,65.5,63.5s-29.38,63.5-65.5,63.5c-17.18,0-34.45-7.91-47.38-21.71C9.1,96.42,2.7,80.88,3.58,67.23,4.71,49.76,11.67,33.71,23.19,22A62.48,62.48,0,0,1,68.09,3.5m0-3.5C30,0,2.49,29.86.09,67c-2,31,29.89,67,68,67s69-30,69-67S106.2,0,68.09,0Z"/><path class="cls-3" d="M92.79,66.54c8.94,0,8.95-13.89,0-13.89s-9,13.89,0,13.89Z"/><path class="cls-3" d="M35,66.54c8.94,0,8.95-13.89,0-13.89S26,66.54,35,66.54Z"/><path class="cls-4" d="M60.4,66.11a15.93,15.93,0,0,0,.46,5.79A4.51,4.51,0,0,0,66.35,75a4.55,4.55,0,0,0,3.12-5.49c-.09-.32-.15-.65-.22-1-.08-.5-.07-.44,0,.2l0-.5a11.91,11.91,0,0,1,.09-2.15A4.47,4.47,0,0,0,68,63a4.49,4.49,0,0,0-6.32,0,5.17,5.17,0,0,0-1.3,3.16Z"/><path class="cls-3" d="M72.33,60.34c-2.19,1.52-4.44,3.27-5,6a16.18,16.18,0,0,0-.21,3.87,6.69,6.69,0,0,1-.29,3.07c-.79,1.63-3,1.39-4.12,0a4.32,4.32,0,0,1-.86-2.76,30.85,30.85,0,0,0-.07-4.51,6.08,6.08,0,0,0-2-3.69,12.47,12.47,0,0,0-1.74-1.1L57.54,61c.15.08-.13-.25,0,0s.14.19.14.32a2,2,0,0,0-3.39-1.4,3.51,3.51,0,0,0-.42,4.61c1.24,1.81,3.59,2,5.49,1.22,1.45-.6,2.82-2.15,4.47-2s3.13,1.28,4.36,2.23a2.05,2.05,0,0,0,2.8,0,2,2,0,0,0,0-2.81c-2.57-2-5.69-4.12-9.12-3.15-1.52.42-2.6,1.59-4,2.12a3.3,3.3,0,0,1-.59.13c0,.11-.12.09-.27,0a.26.26,0,0,1,.15.07c.1.14.09.12,0-.08a.28.28,0,0,1,.07.25c0-.35,0-.25-.12.29q-.21.24.06,0l-3.39-1.41A4,4,0,0,0,56,64.65c1,.58,1.57.74,1.85,1.85.35,1.36,0,3,.07,4.4a8.25,8.25,0,0,0,1.32,4.34A6.72,6.72,0,0,0,67.1,78c3.09-1.2,4.06-4.13,4-7.21,0-1.34-.27-2.88.26-4.12a7.81,7.81,0,0,1,3-2.9,2,2,0,0,0,.72-2.71,2,2,0,0,0-2.72-.71Z"/><path class="cls-5" d="M56.51,27.57a14.91,14.91,0,0,1,0-2.5c0-.22,0-.44.07-.67-.06.51,0-.2.05-.29q.1-.62.27-1.23c.11-.4.24-.8.38-1.19,0-.08.29-.74.11-.3a5.05,5.05,0,0,1,.24-.53,14.6,14.6,0,0,1,1.32-2.22,2,2,0,0,0-.71-2.72,2,2,0,0,0-2.72.71,16.28,16.28,0,0,0-2.94,10.94,2,2,0,0,0,2,2,2,2,0,0,0,2-2Z"/><path class="cls-5" d="M59.06,19.88A24.36,24.36,0,0,1,62,15l-.39.5a24.48,24.48,0,0,1,2.31-2.57,2.48,2.48,0,1,0-3.51-3.51,26.13,26.13,0,0,0-5.65,8,2.7,2.7,0,0,0-.25,1.91,2.49,2.49,0,0,0,1.14,1.48,2.46,2.46,0,0,0,1.91.25,2.34,2.34,0,0,0,1.48-1.14Z"/><path class="cls-5" d="M64.84,11.71a6.27,6.27,0,0,1,1-1.93c.3-.41-.22.24.12-.13.14-.16.27-.31.42-.46l.46-.43c.05,0,.55-.43.25-.21A3.07,3.07,0,0,0,68.2,4.47a3,3,0,0,0-4.07-1.06,13.58,13.58,0,0,0-5,6.71,3,3,0,0,0,2.08,3.67,3.07,3.07,0,0,0,3.67-2.08Z"/><path class="cls-5" d="M66.32,10.11,67.68,9a2.64,2.64,0,0,0,.72-1.12,2.57,2.57,0,0,0,.3-1.34,3.48,3.48,0,0,0-3.47-3.47l-.93.13a3.49,3.49,0,0,0-1.53.89L61.41,5.19a2.64,2.64,0,0,0-.72,1.12,2.68,2.68,0,0,0-.29,1.34,3.45,3.45,0,0,0,3.47,3.47l.92-.12a3.48,3.48,0,0,0,1.53-.89Z"/><path class="cls-5" d="M60.3,4.76,57,9.49a3.49,3.49,0,0,0,1.24,4.75A3.57,3.57,0,0,0,63,13L66.3,8.26a3.49,3.49,0,0,0-1.25-4.75A3.56,3.56,0,0,0,60.3,4.76Z"/><path class="cls-5" d="M56.8,11.61a17.47,17.47,0,0,0-2.68,6.29,2.6,2.6,0,0,0,.25,1.91,2.48,2.48,0,0,0,3.39.89,2.45,2.45,0,0,0,1.14-1.48,16.85,16.85,0,0,1,.89-2.88l-.25.59a16.07,16.07,0,0,1,1.54-2.82,2.48,2.48,0,0,0-.89-3.39,2.46,2.46,0,0,0-1.91-.25,2.7,2.7,0,0,0-1.48,1.14Z"/><path class="cls-5" d="M54.47,17.47l-.39,1.91a1.63,1.63,0,0,0,0,.79,1.62,1.62,0,0,0,.24.74,2.14,2.14,0,0,0,1.19.91l.52.07a2,2,0,0,0,1-.27l.4-.31a2.13,2.13,0,0,0,.51-.87l.39-1.92a1.52,1.52,0,0,0,0-.79A1.53,1.53,0,0,0,58.1,17a1.59,1.59,0,0,0-.51-.55,1.5,1.5,0,0,0-.68-.36L56.38,16a2,2,0,0,0-1,.27l-.4.31a1.91,1.91,0,0,0-.51.88Z"/><path class="cls-5" d="M59.65,14.69,60,12.78a1.52,1.52,0,0,0,0-.79,1.5,1.5,0,0,0-.23-.74,1.55,1.55,0,0,0-.52-.56,1.49,1.49,0,0,0-.67-.35l-.53-.07a2,2,0,0,0-1,.27l-.4.31a1.93,1.93,0,0,0-.51.87l-.38,1.92a1.63,1.63,0,0,0,0,.79,1.62,1.62,0,0,0,.24.74,2.14,2.14,0,0,0,1.19.91l.52.07a2,2,0,0,0,1-.27l.4-.31a2.11,2.11,0,0,0,.51-.88Z"/><path class="cls-5" d="M55.91,18.94,54.78,22a1.47,1.47,0,0,0,.15,1.14,1.51,1.51,0,0,0,.88.69A1.58,1.58,0,0,0,57,23.69a1.75,1.75,0,0,0,.69-.89l1.13-3.07a1.49,1.49,0,0,0-2.19-1.68,1.68,1.68,0,0,0-.68.89Z"/><path class="cls-5" d="M54.53,22.77l-.48,2.88a1.62,1.62,0,0,0,.15,1.15,1.49,1.49,0,0,0,.89.68,1.47,1.47,0,0,0,1.14-.15,1.44,1.44,0,0,0,.69-.89l.48-2.88a1,1,0,0,0,0-.6,1.09,1.09,0,0,0-.18-.55,1.48,1.48,0,0,0-2-.53,1.44,1.44,0,0,0-.69.89Z"/><path class="cls-5" d="M64.82,12.4a2.7,2.7,0,0,0,.55-.45l.28-.36,0-.07.09-.16a3,3,0,0,0,.26-.67,2.51,2.51,0,0,1,0-.27l0-.28V10A1.15,1.15,0,0,0,66,9.38a1,1,0,0,0-.31-.47,1,1,0,0,0-.48-.31,1.09,1.09,0,0,0-.57-.13l-.39,0a1.39,1.39,0,0,0-.66.39l-.23.3a1.42,1.42,0,0,0-.21.75,1.13,1.13,0,0,1,0,.26l0-.4a1.89,1.89,0,0,1-.09.34l.15-.36a1.69,1.69,0,0,1-.17.29l.23-.3a1.52,1.52,0,0,1-.22.22l.3-.23-.07.05a1.18,1.18,0,0,0-.42.38,1,1,0,0,0-.26.51,1.07,1.07,0,0,0,0,.59,1.09,1.09,0,0,0,.18.55l.23.3a1.44,1.44,0,0,0,.66.39l.39,0a1.5,1.5,0,0,0,.75-.2Z"/><path class="cls-5" d="M67.51,6.66a1.49,1.49,0,0,0,0-3,1.49,1.49,0,0,0,0,3Z"/><path class="cls-5" d="M68.28,6.28a1.49,1.49,0,0,0,0-3,1.49,1.49,0,0,0,0,3Z"/><path class="cls-2" d="M61.93,3.76a17.31,17.31,0,0,1,2.12-.27A7,7,0,0,1,66,3.62a8.08,8.08,0,0,0,4.62-.24,1.53,1.53,0,0,0,1-1.83,1.51,1.51,0,0,0-1.83-1,6.4,6.4,0,0,1-1,.31s-.47.07-.22,0c-.2,0-.41,0-.61,0l-.46,0c-.31,0,.06,0-.24,0S66.5.69,66.13.64a15.5,15.5,0,0,0-5,.25,1.49,1.49,0,0,0-1,1.83,1.53,1.53,0,0,0,1.83,1Z"/></g></g></svg>