<svg xmlns="http://www.w3.org/2000/svg" viewBox="0 0 111 118.25"><defs><style>.cls-1{fill:#f3ef74;}.cls-2{fill:#e2a910;}.cls-3{fill:#976f22;}.cls-4{fill:#a3811f;}.cls-5{fill:#fff8b9;}</style></defs><g id="Layer_2" data-name="Layer 2"><g id="Pear"><circle class="cls-1" cx="55.5" cy="62.75" r="54"/><path class="cls-2" d="M55.5,10.25A52.5,52.5,0,1,1,3,62.75a52.56,52.56,0,0,1,52.5-52.5m0-3A55.5,55.5,0,1,0,111,62.75,55.5,55.5,0,0,0,55.5,7.25Z"/><path class="cls-3" d="M58,17.25H56.11a1,1,0,0,1-1-1.1C55.85,9.46,57.47,3.9,60.78.48a1.08,1.08,0,0,1,.53-.3c2.28-.47,3.78,0,4.45,1.39a1,1,0,0,1-.15,1.09c-2.33,2.1-7.2,9.69-6.64,13.61A.94.94,0,0,1,58,17.25Z"/><path class="cls-4" d="M55.06,69.16c0-.28,0,.07,0,.09a.84.84,0,0,1,.05-.2s-.15.29,0,0c0,0,.15-.23,0-.06s.31-.29.09-.1,0,0,.08,0a1.3,1.3,0,0,1,.26-.14c-.37.11.19,0,.26,0l.09,0c-.21,0,0,0,.09,0a4,4,0,0,1,.49,0h.31c.29,0-.14,0,0,0s.32.07.48.12.29.09.11,0,.05,0,.1.05a4.64,4.64,0,0,0,.42.25s-.27-.24-.06,0,.14.12.2.19l.14.16c.14.14-.14-.23,0-.06a1.91,1.91,0,0,0,.24.42s-.1-.33,0-.06l.07.25c0,.06.09.28,0,0a1.7,1.7,0,0,1,0,.39,4,4,0,0,0,0,.47s.07-.37,0-.06a1.74,1.74,0,0,1-.05.22s-.09.43-.13.43.13-.26,0,0a2,2,0,0,1-.17.29s.24-.26,0-.05l-.14.14s-.13.09-.15.13.29-.19.07-.06l-.34.2c-.23.12,0,0,.08,0s-.21.08-.28.1a2.6,2.6,0,0,1-.4.1l-.2,0c-.26.06.06,0,.1,0-.31,0-.63.06-.93.06h-.4a1.36,1.36,0,0,0-.39,0c.09-.06.31.06.1,0l-.23,0-.19-.06c-.16,0,.28.17.06,0L54.74,72c.17.13.21.16.13.09l-.1-.1s.19.35.06.06.08.31,0,0-.21-.71-.28-1.07c0,0-.05-.41,0-.18s0-.14,0-.18v-.23c0-.33-.08.3,0,0a1.17,1.17,0,0,0,0-.2c.07-.28-.16.23,0,0a1.25,1.25,0,0,0,.11-.18l-.11.14.14-.15a1.5,1.5,0,1,0-2.12-2.12,3.84,3.84,0,0,0-1.06,3,5.84,5.84,0,0,0,1.09,3.22,3.86,3.86,0,0,0,2.71,1.15,8.6,8.6,0,0,0,2.58-.18,4.75,4.75,0,0,0,2.38-1.33,4.91,4.91,0,0,0,1.2-3.12,4.68,4.68,0,0,0-3.54-4.76,5.84,5.84,0,0,0-3.78.26,3.46,3.46,0,0,0-2.08,3.06,1.5,1.5,0,0,0,3,0Z"/><path class="cls-4" d="M57.77,68.86c1.11,2.12,3.6,2.56,5.76,2.23a11.83,11.83,0,0,0,5.59-2.4,1.5,1.5,0,0,0,0-2.13,1.56,1.56,0,0,0-2.12,0l-.3.22-.51.31-.47.24s-.49.21-.26.12a12.52,12.52,0,0,1-2.22.65,4.14,4.14,0,0,1-2,0c-.1,0-.37-.16-.14,0a4.12,4.12,0,0,1-.45-.27c.26.18-.14-.14-.18-.2.21.23-.09-.16-.13-.23a1.51,1.51,0,0,0-2-.54,1.53,1.53,0,0,0-.54,2Z"/><path class="cls-4" d="M52.77,67.35c0,.07-.34.46-.13.23,0,.06-.44.38-.18.2-.13.09-.27.15-.4.24s-.07,0,.06,0a1.06,1.06,0,0,1-.25.09,4.14,4.14,0,0,1-2,0,12.28,12.28,0,0,1-2.22-.65c.24.1-.15-.07-.19-.09a5.44,5.44,0,0,1-.54-.27c-.17-.1-.35-.2-.51-.31l-.3-.22a1.55,1.55,0,0,0-2.13,0,1.53,1.53,0,0,0,0,2.13,11.86,11.86,0,0,0,5.6,2.4c2.16.33,4.65-.11,5.76-2.23a1.5,1.5,0,1,0-2.59-1.51Z"/><path class="cls-4" d="M80.89,63.91c6.44,0,6.45-10,0-10s-6.44,10,0,10Z"/><path class="cls-4" d="M33.21,64.3c6.44,0,6.45-10,0-10s-6.44,10,0,10Z"/><path class="cls-4" d="M55.24,68.94c.66-.45,1.31-.94,2-1.36l-.36.15.06,0-.4.05h.07l-.39,0h.06l-.36-.15a3.52,3.52,0,0,1,.5.36l.55.4,1.1.81a1.5,1.5,0,0,0,1.15.16,1.56,1.56,0,0,0,.9-.69,1.52,1.52,0,0,0,.15-1.16,1.8,1.8,0,0,0-.69-.9l-1.16-.86A4.31,4.31,0,0,0,57,64.81a1.85,1.85,0,0,0-1.48.31l-.59.4-1.2.83a1.56,1.56,0,0,0-.69.9,1.54,1.54,0,0,0,.15,1.15,1.52,1.52,0,0,0,2.05.54Z"/><path class="cls-5" d="M98.77,82.47q-1.27,2-2.68,3.88l-.35.45s-.18.24-.09.13l-.1.13L94.8,88c-.5.62-1,1.23-1.55,1.83a1.53,1.53,0,0,0,0,2.12,1.51,1.51,0,0,0,2.12,0,63.71,63.71,0,0,0,6-8,1.51,1.51,0,0,0-.54-2,1.53,1.53,0,0,0-2,.54Z"/></g></g></svg>