<svg xmlns="http://www.w3.org/2000/svg" viewBox="0 0 76 82.93"><defs><style>.cls-1{fill:#fc7f22;}.cls-2{fill:#d26321;}.cls-3{fill:#b8e14c;stroke:#567c00;stroke-miterlimit:10;stroke-width:2.5px;}.cls-4{fill:#fcd5ae;}.cls-5{fill:#c93105;}</style></defs><g id="Layer_2" data-name="Layer 2"><g id="Persimmon"><circle class="cls-1" cx="38" cy="44.94" r="36.5"/><path class="cls-2" d="M38,9.93a35,35,0,1,1-35,35,35,35,0,0,1,35-35m0-3a38,38,0,1,0,38,38,38,38,0,0,0-38-38Z"/><path class="cls-3" d="M27.7,14.1a44.41,44.41,0,0,1,23.39,0,.5.5,0,0,0,.61-.66c-.55-1.34-1.19-3.8.45-5.55,2.35-2.5-7,2.38-10.83-4.06-2.11-3.55-1.82-3.44-4,0-4,6.48-13.33,2-10.87,4.05,2.05,1.71,1.3,4.12.62,5.47A.5.5,0,0,0,27.7,14.1Z"/><path class="cls-4" d="M30.21,19.17c2.58,0,2.58-4,0-4s-2.58,4,0,4Z"/><path class="cls-4" d="M20.22,20.11a13,13,0,0,0-6.57,7.5,4,4,0,0,0,2.8,4.92,4.11,4.11,0,0,0,4.92-2.8c.34-.91-.42.71.07-.14.1-.17.18-.35.29-.52s.53-1,.06-.16a2.9,2.9,0,0,1,.49-.56l.54-.52c.53-.5-.39.22,0,0a15.37,15.37,0,0,1,1.43-.8,4,4,0,0,0,1.44-5.47,4.12,4.12,0,0,0-5.48-1.44Z"/><path class="cls-5" d="M23.32,47.21c5.15,0,5.16-8,0-8s-5.16,8,0,8Z"/><path class="cls-5" d="M55.49,46.47c5.15,0,5.16-8,0-8s-5.16,8,0,8Z"/><path class="cls-5" d="M35.4,48.6c.14.07.28.13.42.21l.16.1.13.09c-.08-.06.12.11.11.1l.14.13.16.18s.14.16,0,.05a3.75,3.75,0,0,1,.24.36l.11.21c.09.15,0,0,0,.06a2.8,2.8,0,0,1,.13.41,1.55,1.55,0,0,1,.05.23c0,.16,0-.24,0,.06a3,3,0,0,1,0,.42c0,.08,0,.16,0,.24,0-.11,0-.07,0,0a3.43,3.43,0,0,1-.11.46L37,52.1c-.1.28,0-.09,0,.07s-.15.28-.23.41-.09.13-.13.19,0,0,0,0a3.55,3.55,0,0,1-.33.34l-.15.12-.1.07a1,1,0,0,0,1,1.73,4.65,4.65,0,0,0-.57-8.17,1,1,0,0,0-1.37.36,1,1,0,0,0,.36,1.36Z"/><path class="cls-5" d="M39.16,51.27s.31-.25.13-.12l.27-.18.29-.16s.35-.19.12-.07a2.72,2.72,0,0,1,.59-.19l.3,0c-.28,0,0,0,.08,0a5.42,5.42,0,0,1,.57,0c.12,0,.11,0,0,0l.15,0,.31.07a4.48,4.48,0,0,1,.62.2c-.22-.09.11.05.15.07L43,51a1,1,0,1,0,1-1.73,5.59,5.59,0,0,0-3.16-.8,5.28,5.28,0,0,0-3.12,1.34,1,1,0,0,0,0,1.42,1,1,0,0,0,1.42,0Z"/><path class="cls-5" d="M43.53,47.17a3.68,3.68,0,0,0-.84,2.95,3.46,3.46,0,0,0,1.49,2.82,1,1,0,0,0,1.37-.36,1,1,0,0,0-.36-1.36l-.09-.06c-.18-.09.12.11.07.06L45,51c-.11-.11.14.22.06.08A.86.86,0,0,0,45,51a1.27,1.27,0,0,1-.12-.23c-.09-.18,0,.06,0,.08s0-.1,0-.13l-.09-.29c0-.1,0-.21-.06-.31s0-.25,0,.08c0,0,0-.1,0-.15a3.75,3.75,0,0,1,0-.58l0-.31c0-.11-.06.29,0,.08l0-.16a2.33,2.33,0,0,1,.07-.25s0-.08,0-.12-.12.23,0,.09l.12-.21c.1-.18-.1.12-.06.07l.09-.09a1,1,0,1,0-1.41-1.42Z"/></g></g></svg>