<svg xmlns="http://www.w3.org/2000/svg" viewBox="0 0 151 177.22"><defs><style>.cls-1{fill:#b1eb32;stroke:#488900;stroke-miterlimit:10;stroke-width:4px;}.cls-2{fill:#f4e406;}.cls-3{fill:#edb414;}.cls-4{fill:#fff7e7;}.cls-5{fill:#a07904;}.cls-6{fill:#faffa3;}</style></defs><g id="Layer_2" data-name="Layer 2"><g id="Pineapple"><path class="cls-1" d="M49.67,26.83,41.2,24a2,2,0,0,1-.8-3.35,22.25,22.25,0,0,1,14.11-6.28A2,2,0,0,0,55.92,11L52.2,6.57a2,2,0,0,1,.88-3.22C56.82,2.1,64.34,1.2,73.8,8.54a2,2,0,0,0,2.63-.1A24.42,24.42,0,0,1,98.26,2.6s4.73-.21-3.34,8.19a2,2,0,0,0,1.21,3.43c4.32.55,10.77,1.93,14,5.35a2,2,0,0,1-.7,3.28c-2.68,1.1-7,3-8.2,4.28a1.92,1.92,0,0,1-1.45.59l-49.51-.78A1.83,1.83,0,0,1,49.67,26.83Z"/><ellipse class="cls-2" cx="75.5" cy="100.22" rx="73.5" ry="75"/><path class="cls-3" d="M75.5,27.22c39.43,0,71.5,32.74,71.5,73s-32.07,73-71.5,73S4,140.47,4,100.22s32.07-73,71.5-73m0-4c-41.7,0-75.5,34.47-75.5,77s33.8,77,75.5,77,75.5-34.48,75.5-77-33.8-77-75.5-77Z"/><path class="cls-4" d="M66.55,114.4a13.18,13.18,0,0,0,11.89-3.33,4.5,4.5,0,0,0,0-6.31,5.67,5.67,0,0,0-8.11,0c-2.39,2.22-1.27,6.75,2,7.46a12.81,12.81,0,0,0,2.74.37c.5,0,1.91-.46,2.29-.2s.77.26.21.7c-.73.57-3.14-.18-4-.36a34.9,34.9,0,0,1-5.81-1.81c-2.26-.91-4.88,1-5.49,3.12-.73,2.53.89,4.59,3.11,5.49,6.48,2.61,16.86,5,20.48-3a9.07,9.07,0,0,0-1.5-9.9A9.56,9.56,0,0,0,80.46,104c-2-.65-3.87,0-5.78-.42l2,7.46-1.07.68H73.2l-1.07-.67v-6.31a3.66,3.66,0,0,1-3.2,1c-5.62-1-8,7.58-2.38,8.62Z"/><path class="cls-5" d="M87.87,102.28c-4,1.58-5.17,5.59-4.88,9.58.12,1.7.48,3.52,0,5.2a2.56,2.56,0,0,1-2.61,2,62.26,62.26,0,0,1-6.26,0,43.48,43.48,0,0,1-6.36-.2c-1.19-.2-2.77-.68-3.16-2a5.49,5.49,0,0,1,.12-2.48c.19-1.13.37-2.25.49-3.39.24-2.08.58-4.64-.18-6.64a3.92,3.92,0,0,0-6.28-1.7c-1.86,1.48-.14,4.08,1.75,4.24A23.39,23.39,0,0,0,72,105c.78-.32,2-1,2.93-.87.71.12,1.42,1.07,2,1.47a7.22,7.22,0,0,0,3.3,1.21,9.81,9.81,0,0,0,3.54-.19c.42-.1,1.45-.47,1.79-.15,2.33,2.18,5.85-1.32,3.51-3.51-2.13-2-4.41-1.43-7-1s-3.46-1.93-5.64-2.53c-2.71-.75-5.11.69-7.59,1.54a20.07,20.07,0,0,1-8.32,1l1.75,4.23.25-.19-1.1.64c-.29.1-.52-.24-.71-.33-.69-.34-.13-.3-.22.09a6.52,6.52,0,0,0,0,1.17c0,1.07-.07,2.15-.18,3.22-.21,2-.84,3.91-.71,5.88.31,4.43,4.16,6.7,8.19,7.17,2,.23,4.08.16,6.11.19s4.22.16,6.31,0A8.48,8.48,0,0,0,85.74,122,8,8,0,0,0,88,117.52c.37-2.22,0-4.35-.07-6.57,0-1.08,0-3.37,1.28-3.89a2.56,2.56,0,0,0,1.74-3,2.5,2.5,0,0,0-3-1.73Z"/><path class="cls-5" d="M107.82,81.44c-7.12,1.49-15.59,5-15.28,13.71.16,4.46,7.11,4.48,6.95,0-.19-5.09,6.38-6.22,10.17-7,4.37-.92,2.52-7.61-1.84-6.7Z"/><path class="cls-5" d="M41.18,88.84c4.84-1.63,7.31,3.56,8,7.47.77,4.39,7.47,2.53,6.69-1.85C54.52,86.8,47.79,79.3,39.34,82.14c-4.22,1.42-2.41,8.13,1.84,6.7Z"/><path class="cls-6" d="M60.45,43.6a69.93,69.93,0,0,0-17,7.8c-6.44,4.1-.48,14.41,6,10.28a57.46,57.46,0,0,1,14.14-6.59c7.3-2.25,4.19-13.75-3.16-11.49Z"/><path class="cls-6" d="M33.26,74.87c7.66,0,7.67-11.9,0-11.9s-7.68,11.9,0,11.9Z"/></g></g></svg>