<svg xmlns="http://www.w3.org/2000/svg" viewBox="0 0 35 40.5"><defs><style>.cls-1{fill:#f85455;}.cls-2{fill:#b02423;}.cls-3{fill:#b5ee3d;}.cls-4{fill:#678809;}.cls-5{fill:#fce7b5;}.cls-6{fill:#c81300;}</style></defs><g id="Layer_2" data-name="Layer 2"><g id="Strawberry"><path class="cls-1" d="M17.5,39.25a9.78,9.78,0,0,1-2.29-.36C10.73,37.08,1.25,27,1.25,20,1.25,8,12.61,6.75,17.5,6.75S33.75,8,33.75,20c0,7-9.48,17.08-14,18.89A9.78,9.78,0,0,1,17.5,39.25Z"/><path class="cls-2" d="M17.5,8c5.6,0,15,1.56,15,12,0,6.41-9.06,16.07-13.17,17.73A9.72,9.72,0,0,1,17.5,38a10.36,10.36,0,0,1-1.82-.26C11.56,36.07,2.5,26.41,2.5,20c0-10.44,9.4-12,15-12m0-2.5C7.84,5.5,0,9.78,0,20c0,7.44,9.72,18,14.74,20a10.77,10.77,0,0,0,2.76.45,10.77,10.77,0,0,0,2.76-.45C25.28,38,35,27.44,35,20,35,9.78,27.16,5.5,17.5,5.5Z"/><path class="cls-3" d="M17.5,10.5C12.42,10.5,9,8.69,9,7c0-1.43,2.34-2.79,5.68-3.29a.58.58,0,0,0,.5-.5C15.37,2,15.92.5,17.5.5S19.63,2,19.82,3.21a.59.59,0,0,0,.5.5C23.66,4.21,26,5.57,26,7,26,8.69,22.58,10.5,17.5,10.5Z"/><path class="cls-4" d="M17.5,1c1,0,1.6.77,1.82,2.29a1.09,1.09,0,0,0,.92.91C23.53,4.7,25.5,6,25.5,7c0,1.22-3.12,3-8,3s-8-1.78-8-3c0-1,2-2.3,5.26-2.8a1.08,1.08,0,0,0,.92-.92C15.91,1.77,16.52,1,17.5,1m0-1c-2,0-2.62,1.89-2.81,3.14a.08.08,0,0,1-.08.07C11.06,3.75,8.5,5.24,8.5,7c0,2.21,4,4,9,4s9-1.79,9-4c0-1.76-2.56-3.25-6.11-3.79a.08.08,0,0,1-.08-.07C20.12,1.89,19.51,0,17.5,0Z"/><ellipse class="cls-5" cx="8.5" cy="15" rx="1" ry="2"/><ellipse class="cls-5" cx="5.5" cy="22.5" rx="1" ry="1.5"/><ellipse class="cls-5" cx="11" cy="27" rx="0.5" ry="1"/><circle class="cls-5" cx="14.5" cy="33" r="1"/><circle class="cls-5" cx="27" cy="25.5" r="0.5"/><ellipse class="cls-5" cx="29" cy="20" rx="0.5" ry="1"/><ellipse class="cls-5" cx="17" cy="16" rx="0.5" ry="1"/><ellipse class="cls-5" cx="25" cy="14.5" rx="0.5" ry="1.5"/><circle class="cls-5" cx="22" cy="30.5" r="0.5"/><path class="cls-6" d="M20.83,20.68a5.09,5.09,0,0,0,2.8,1.13,3,3,0,0,0,.74,0,1.08,1.08,0,0,0,.68-.45,1.89,1.89,0,0,0,.3-1.29,3,3,0,0,0-1.47-2.28.74.74,0,0,0-.82-.05.76.76,0,0,0-.27.34l-.07.16c0,.05,0,0,0,0l0,.06-.12.2s-.09.12,0,0l0,.07c-.12.14-.24.26-.37.39l-.44.38-.1.08s0,0,0,0l-.07,0-.18.13-.43.3a.5.5,0,0,0-.18.68.49.49,0,0,0,.68.18,9.42,9.42,0,0,0,1.08-.8,5.62,5.62,0,0,0,.7-.68,2.75,2.75,0,0,0,.32-.44,2.39,2.39,0,0,0,.13-.28v0h0l0,0c-.11.08-.13.1-.05.07l-.26.06c-.11,0-.13,0-.05,0l.09.05.18.12c-.05,0,.06.07.06.06l.16.15a3,3,0,0,1,.38.56,2.2,2.2,0,0,1,.16.61v.21s0,.16,0,.08a1.33,1.33,0,0,1-.05.19c0,.06,0,.07,0,0l0,.07,0,.06s0,0,0,0,0,0,0,0,0,0,0,0h-.34a3.1,3.1,0,0,1-.8-.12A4,4,0,0,1,21.53,20a.5.5,0,0,0-.7,0A.48.48,0,0,0,20.83,20.68Z"/><path class="cls-6" d="M23,19.36l.21.19.09.1c0,.06,0,0,0,0l0,.07c.05.08.1.16.14.24l0,.06c0,.06,0-.12,0,0a.78.78,0,0,1,.05.14l0,.14s0-.12,0,0,0,0,0,0,0,0,0,0l.12-.11s0,0,0,0,0,0,0,0,.12,0,0,0-.48,0-.72,0h-.52s-.06,0-.07,0,.14.05.17.08a.29.29,0,0,1,.07.12l0,.14a.23.23,0,0,1-.06.2l.05,0s-.08.06,0,0l.27-.16c.06,0-.09,0,0,0l.08,0,.12,0,.14,0c.09,0,0,0,0,0h.33l.09,0,.14,0s-.11-.05,0,0l.08,0,.05,0-.05-.05,0,0a.1.1,0,0,0,0,.05l0-.06,0,.05s0,0,0-.05,0,.06,0,.07,0-.14,0-.06v.06c0,.06,0-.13,0-.05a.14.14,0,0,0,0,.06c0,.06.07-.11,0,0s0,.08,0,0,0,0,0,0l.06-.05.06,0a.5.5,0,0,0-.3.23.46.46,0,0,0-.05.38.5.5,0,0,0,.61.35,1,1,0,0,0,.47-.36,1.08,1.08,0,0,0,.15-.47,1,1,0,0,0-.35-.84,2.06,2.06,0,0,0-2.27-.06,1.13,1.13,0,0,0-.43.38.65.65,0,0,0,.11.78.84.84,0,0,0,.62.24c.32,0,.64,0,1-.05a4,4,0,0,0,.5,0,.73.73,0,0,0,.56-.49,1.45,1.45,0,0,0-.21-1.1,2.42,2.42,0,0,0-.61-.74.57.57,0,0,0-.35-.14.5.5,0,0,0-.35.85Z"/><path class="cls-6" d="M16.09,26.08a17.62,17.62,0,0,0,2.41,0,1.3,1.3,0,0,0,.8-.33,1.14,1.14,0,0,0,.32-.8,1.13,1.13,0,0,0-1.12-1.12,20.56,20.56,0,0,0-2.22,0,1.2,1.2,0,0,0-.79.33,1.11,1.11,0,0,0-.33.8,1.15,1.15,0,0,0,.33.8,1.1,1.1,0,0,0,.79.32,20.56,20.56,0,0,1,2.22,0V23.84a17.62,17.62,0,0,1-2.41,0,1.11,1.11,0,0,0-.79.33A1.07,1.07,0,0,0,15,25a1.11,1.11,0,0,0,.33.8,1.28,1.28,0,0,0,.79.33Z"/><path class="cls-5" d="M16.32,25.33c.39,0,.78,0,1.17,0h.58a.92.92,0,0,0,.63-.13.4.4,0,0,0,0-.54c-.15-.16-.46-.14-.66-.16l-.59,0a6.1,6.1,0,0,0-1.21,0,.41.41,0,0,0-.34.6c.13.22.43.23.66.23h1.25a.38.38,0,0,0,0-.75H16.4c-.06,0,0,0,.09.06l.09.17h0l0,.29h0l-.13.13-.05,0h.05c-.09,0,0,0,0,0h.27a5.61,5.61,0,0,1,.58,0l.57,0,.29,0h.12s0,0,0,0h0l-.17-.09h0V24.7h0l.17-.09c.1,0,0,0,0,0h-.94l-1.06,0a.38.38,0,0,0-.38.37.39.39,0,0,0,.38.38Z"/><path class="cls-6" d="M13.54,20a3.93,3.93,0,0,1-1.45.71,3.41,3.41,0,0,1-.83.13h-.35q-.11,0,0,0c-.05,0-.05,0,0,0s0,0,0,0l0-.06a.16.16,0,0,1,0-.07s0,0,0,0,0-.13,0-.19v-.08a.74.74,0,0,1,0-.21.41.41,0,0,1,0-.11c0,.05,0,0,0,0l0-.15.06-.21a.36.36,0,0,0,0-.09s0,0,0,0a2,2,0,0,1,.39-.58l.15-.15.07-.06.18-.12.09-.05q.12-.06-.06,0l-.25-.06c.05,0,.05,0,0,0s-.06-.06,0,0,0-.05,0,0,0,0,0,0,.08.18.13.27a3.11,3.11,0,0,0,.31.43,5.21,5.21,0,0,0,.71.7,10.39,10.39,0,0,0,1.08.8.51.51,0,0,0,.69-.18.5.5,0,0,0-.18-.68l-.36-.24-.32-.24-.1-.08-.24-.2-.36-.34c-.06-.07-.12-.13-.17-.2l-.06-.06c0-.05,0-.05,0,0l0-.07-.12-.2s0-.13,0,0,0-.05,0-.07a.76.76,0,0,0-.69-.57,1.34,1.34,0,0,0-.72.34,3.08,3.08,0,0,0-.52.5,2.91,2.91,0,0,0-.62,1.21A2.27,2.27,0,0,0,9.85,21a1.27,1.27,0,0,0,.45.62,1.31,1.31,0,0,0,.77.2,5.1,5.1,0,0,0,3.18-1.15.5.5,0,0,0,0-.7A.51.51,0,0,0,13.54,20Z"/><path class="cls-6" d="M11.39,18.65a2.37,2.37,0,0,0-.56.66,1.82,1.82,0,0,0-.3.91.74.74,0,0,0,.32.64,1,1,0,0,0,.54.15l1,0a1.64,1.64,0,0,0,.54,0,.72.72,0,0,0,.49-.52c.11-.45-.31-.77-.67-.94a2.08,2.08,0,0,0-1.88,0,1.14,1.14,0,0,0-.57.94,1.09,1.09,0,0,0,.13.5,1,1,0,0,0,.49.4.49.49,0,0,0,.39,0,.53.53,0,0,0,.23-.3.5.5,0,0,0,0-.38.57.57,0,0,0-.3-.23l.05,0c.12.07.07.05,0,0s.06.1,0,.05l0-.05s0,.12,0,.05a.43.43,0,0,1,0-.05c0-.08,0,.07,0,.06v-.07s0,0,0,.06,0,0,0-.05,0,0,0,.05l0-.05c0-.06-.07.07,0,0l.05-.06s0,0,0,0l.06-.05.07,0s0,0,0,0,.09,0,.12,0l.13,0c.07,0-.11,0,0,0h.32c.08,0,0,0,0,0l.29.07.06,0c.09,0,0,0,0,0a.61.61,0,0,1,.14.07l.13.08.05,0-.05,0,.05,0,0,0a.36.36,0,0,1-.06-.31.29.29,0,0,1,.07-.12.26.26,0,0,1,.11-.07c.1,0,.07,0,0,0l-.37,0-.71,0h-.18c-.12,0,.11,0,0,0s.09.06,0,0a.36.36,0,0,1,.14.18c0-.06,0,0,0,.05V20.2s0,0,0,.06.09-.31.09-.31,0,.12,0,0l.05-.08a.64.64,0,0,1,.08-.14.83.83,0,0,1,.08-.12c0-.06-.08.09,0,0l0-.06a2.73,2.73,0,0,1,.25-.23.51.51,0,0,0,.15-.35.53.53,0,0,0-.15-.36.52.52,0,0,0-.35-.14.57.57,0,0,0-.36.14Z"/></g></g></svg>