<svg xmlns="http://www.w3.org/2000/svg" viewBox="0 0 223 223"><defs><style>.cls-1{fill:#48b00a;}.cls-2{fill:#0d6504;}.cls-3{fill:#043106;}.cls-4{fill:#fff9ff;}</style></defs><g id="Layer_2" data-name="Layer 2"><g id="Watermelon"><circle class="cls-1" cx="111.5" cy="111.5" r="108.75"/><path class="cls-2" d="M111.5,5.5a106,106,0,1,1-106,106,106.12,106.12,0,0,1,106-106m0-5.5A111.5,111.5,0,1,0,223,111.5,111.5,111.5,0,0,0,111.5,0Z"/><path class="cls-2" d="M9.83,141.76a78.62,78.62,0,0,0,23.55,10.41c8.7,2.19,17.29,1.88,26.11,2.77,8.58.87,16.08,5.4,24.48,6.95,8.64,1.59,16.91-.7,25.52-1.14,9-.46,18,1.93,27,2.6a261.69,261.69,0,0,0,29,.38c8.57-.29,18.22.12,26.48-2.44,7.5-2.32,13-8.42,20.34-10.82s4.15-13.86-3.16-11.48c-7,2.29-12.11,7.52-18.8,10.29-7.36,3.05-17.07,2.28-24.86,2.55-9,.31-18,.34-27-.25s-18.09-2.91-27.11-2.8c-8.29.1-16.68,3-25,1.46-7.76-1.46-14.72-5.51-22.58-6.69-8.2-1.24-16.51-.54-24.65-2.27a68.63,68.63,0,0,1-23.25-9.8c-6.45-4.19-12.42,6.11-6,10.28Z"/><path class="cls-2" d="M198.47,156.57A254.61,254.61,0,0,1,99,170.49a241.66,241.66,0,0,1-24.59-2.72q-6.27-1-12.5-2.38c-2-.43-3.17-.61-4.55-1.88-1-1-1.66-2.8-2.69-3.89-4.59-4.86-11.22-6.27-17.24-8.51A60.82,60.82,0,0,1,17.31,138.5c-5.6-5.21-14,3.19-8.42,8.42a74,74,0,0,0,20.84,13.83c6,2.63,14.11,3.33,17.66,9.34,4.35,7.36,14.41,7.54,22.09,8.86,8.58,1.48,17.24,2.56,25.93,3.2a263.57,263.57,0,0,0,106.23-14.1c7.19-2.51,4.09-14-3.17-11.48Z"/><path class="cls-2" d="M46.7,159.09c51.16,10.93,103.92,15.69,155.65,5.72,7.57-1.46,4.37-13-3.19-11.57-49.51,9.54-100.32,4.73-149.27-5.72-7.53-1.61-10.75,10-3.19,11.57Z"/><path class="cls-2" d="M161.62,159.58a256,256,0,0,1-103-3.49c-7.45-1.79-10.63,9.69-3.17,11.48a271.2,271.2,0,0,0,109.36,3.49c7.53-1.29,4.34-12.77-3.17-11.48Z"/><path class="cls-2" d="M6.46,132.06l4.11,3a2,2,0,0,0,1.53.2,2,2,0,0,0,1.38-2.44l-.2-.47a1.86,1.86,0,0,0-.71-.71l-4.1-3a2,2,0,0,0-1.53-.2,2,2,0,0,0-1.19.91,2,2,0,0,0-.2,1.53l.2.47a2,2,0,0,0,.71.71Z"/><path class="cls-2" d="M4.24,127.28a18,18,0,0,0,3.64,4.18,19.34,19.34,0,0,0,5.09,3,2,2,0,0,0,1.53-.2,2.08,2.08,0,0,0,.91-1.19,2,2,0,0,0-.2-1.53,2.35,2.35,0,0,0-1.19-.91c.57.24,0,0-.19-.09l-.54-.26c-.35-.19-.71-.38-1-.59s-.68-.43-1-.66L11,128.9c-.13-.09-.24-.28.07.06a4.33,4.33,0,0,0-.47-.38,17.33,17.33,0,0,1-1.68-1.64l-.39-.46-.19-.23c-.26-.32.2.27.05.07s-.49-.68-.71-1a2,2,0,0,0-3.43,2Z"/><path class="cls-2" d="M12.46,151.65A199.39,199.39,0,0,0,48.81,173a2.05,2.05,0,0,0,2.72-.71,2,2,0,0,0-.71-2.71,199.18,199.18,0,0,1-36.36-21.31,2,2,0,1,0-2,3.43Z"/><path class="cls-2" d="M166.25,156.52q17.76-2.33,35.27-6.18c2.49-.55,1.44-4.38-1.06-3.82q-17,3.75-34.21,6a2,2,0,0,0-2,2c0,1,.91,2.13,2,2Z"/><path class="cls-2" d="M198,143.64a158,158,0,0,1-19.6,8.61,2,2,0,0,0-1.39,2.44,2,2,0,0,0,2.44,1.39,166,166,0,0,0,20.55-9c2.26-1.18.26-4.61-2-3.42Z"/><path class="cls-2" d="M200.45,146.57a99.51,99.51,0,0,1,14.32-4.5,2,2,0,1,0-1.05-3.83,100.07,100.07,0,0,0-14.33,4.51,2,2,0,0,0-1.38,2.44,2,2,0,0,0,2.44,1.38Z"/><path class="cls-2" d="M206.33,150.8l-4,5.67a2,2,0,0,0-.2,1.53,2,2,0,0,0,2.44,1.39,2.29,2.29,0,0,0,1.19-.91l4-5.67a2,2,0,0,0,.2-1.53,2,2,0,0,0-.91-1.19,2,2,0,0,0-1.53-.2,2.27,2.27,0,0,0-1.18.91Z"/><path class="cls-2" d="M54.29,170.86a2,2,0,0,0-.26-.25,8.33,8.33,0,0,0-.67-.5l-.34-.17a7.44,7.44,0,0,0-.78-.31,2.29,2.29,0,0,0-.36-.07,4.93,4.93,0,0,0-.85-.1l-.37,0a8.55,8.55,0,0,0-.86.14,2.1,2.1,0,0,0-1.19.92,1.46,1.46,0,0,0-.23.73,1.51,1.51,0,0,0,0,.79,2,2,0,0,0,2.44,1.39l.34-.07-.53.07a2.66,2.66,0,0,1,.69,0l-.53-.07a3.19,3.19,0,0,1,.67.19l-.48-.2a2.45,2.45,0,0,1,.57.32l-.4-.31.31.28a2.21,2.21,0,0,0,1.4.58,1.47,1.47,0,0,0,.77-.17,1.44,1.44,0,0,0,.63-.41,2,2,0,0,0,.59-1.4,2.14,2.14,0,0,0-.59-1.4Z"/><path class="cls-2" d="M68.25,148.66a135.42,135.42,0,0,0,39,5.38c2.56,0,2.56-4,0-4a131.39,131.39,0,0,1-37.95-5.24c-2.45-.71-3.5,3.12-1,3.83Z"/><path class="cls-2" d="M153.67,155.87c7.15-2.54,14.85-1.49,22.28-1.63a123.42,123.42,0,0,0,23.62-2.74c2.5-.53,1.44-4.36-1.06-3.83A117.79,117.79,0,0,1,175,150.29c-7.47.07-15.18-.8-22.36,1.76-2.39.85-1.36,4.68,1,3.82Z"/><path class="cls-2" d="M190.89,147.11,167.09,151a2,2,0,0,0-1.39,2.45,2,2,0,0,0,2.44,1.38L192,150.94a2,2,0,0,0,1.38-2.44,2,2,0,0,0-2.44-1.39Z"/><path class="cls-2" d="M155.28,151.35l-2.42.31c-.91.11-1.82.22-2.73.31-1.82.18-3.65.33-5.48.45a2,2,0,0,0,0,4c3.91-.24,7.8-.66,11.68-1.2a2,2,0,0,0,1.39-2.45,2,2,0,0,0-2.44-1.38Z"/><path class="cls-2" d="M13.66,101.32Q39.21,95,65,89.65c16.22-3.33,32.82-7.41,49.44-7.86,16.15-.43,32.47,2,48.27,5.24,15.51,3.14,30.67,7.74,44.56,15.43,8.38,4.65,15.9-8.2,7.51-12.85-14.47-8-30.24-13.18-46.38-16.57-17-3.56-34.67-6.37-52-6.17-18,.22-35.89,4.47-53.42,8Q36.2,80.36,9.7,87c-9.29,2.31-5.35,16.66,4,14.35Z"/><path class="cls-2" d="M212.15,104.65l2.29.76a5.46,5.46,0,0,0,6.17-8,6,6,0,0,0-3.27-2.5l-2.29-.77a5.46,5.46,0,0,0-6.17,8,6,6,0,0,0,3.27,2.51Z"/><path class="cls-2" d="M217,106.57c3.83,0,3.84-5.95,0-5.95s-3.83,5.95,0,5.95Z"/><path class="cls-2" d="M9.86,95.88a21.77,21.77,0,0,0-5.37,2A3,3,0,0,0,3.42,102a3,3,0,0,0,4.07,1.07c.39-.21.79-.41,1.19-.59-.38.17.57-.21.53-.2a21.08,21.08,0,0,1,2.23-.64A3,3,0,0,0,13.52,98a3.06,3.06,0,0,0-3.66-2.08Z"/><path class="cls-2" d="M52,92c13.58-7.88,30.28-7.15,45.35-9.69,9.42-1.59,5.42-15.94-4-14.35C76.74,70.77,59.57,70.41,44.5,79.15,36.22,84,43.7,96.81,52,92Z"/><path class="cls-2" d="M78.89,82.14c1.6-2.15,6.06-2.4,8.44-2.83,4.41-.78,8.86-1.41,13.31-2q13.89-1.74,27.9-2.33c9-.39,17.79-1,26.36,2.1,8.34,3,16.25,7.54,23.7,12.3,8.1,5.16,15.57-7.71,7.51-12.85A134.18,134.18,0,0,0,158,62.48c-10.65-3.69-22.28-2.77-33.35-2.17-11.28.62-22.51,1.81-33.68,3.45-9.61,1.41-18.81,2.57-25,10.87-2.41,3.26-.51,8.28,2.67,10.18,3.76,2.26,7.8.55,10.18-2.67Z"/><path class="cls-2" d="M107.8,62.39A113.57,113.57,0,0,0,33.21,79.82c-8,5.18-.57,18.07,7.51,12.85a100.73,100.73,0,0,1,67.08-15.4c4,.48,7.41-3.76,7.45-7.44,0-4.41-3.47-7-7.45-7.44Z"/><path class="cls-2" d="M37.82,95.57a216.26,216.26,0,0,1,36.73-3.16c12.44,0,24.73,1.45,37.11,2.42a467.26,467.26,0,0,0,75.1-.24c9.48-.78,9.56-15.67,0-14.88a467.52,467.52,0,0,1-77,.08c-12.38-1-24.66-2.36-37.11-2.25a239.79,239.79,0,0,0-38.74,3.68c-9.42,1.63-5.43,16,4,14.35Z"/><path class="cls-2" d="M23.81,73.87C34.68,64.15,45.65,54.73,59.2,48.94a182.43,182.43,0,0,1,45.63-12.5,173.83,173.83,0,0,1,45.74-.75c15.31,1.91,27,9,38.68,18.74,7.31,6.1,17.9-4.38,10.53-10.52C187,33.23,173.83,24.45,157.05,21.7c-17.27-2.84-35.12-2.43-52.43-.13A197.15,197.15,0,0,0,54.31,35c-15.74,6.58-28.42,17.1-41,28.37-7.16,6.39,3.4,16.89,10.52,10.52Z"/><path class="cls-2" d="M16.36,70.52a25.27,25.27,0,0,0-8.22,4.94C5.29,78,9.51,82.23,12.35,79.67a17.73,17.73,0,0,1,5.59-3.41A3.06,3.06,0,0,0,20,72.6a3,3,0,0,0-3.66-2.08Z"/><path class="cls-2" d="M19.05,68.73A28.91,28.91,0,0,1,7.46,76.4c-3.59,1.26-2,7,1.58,5.74a35.13,35.13,0,0,0,14.22-9.2c2.61-2.8-1.59-7-4.21-4.21Z"/><path class="cls-2" d="M191.5,55.45a58.73,58.73,0,0,1,15.77,12.34c2.59,2.84,6.79-1.38,4.21-4.21a63.47,63.47,0,0,0-17-13.27c-3.37-1.82-6.38,3.32-3,5.14Z"/><path class="cls-2" d="M191.51,55.61A142.44,142.44,0,0,1,211.89,77c2.35,3,6.53-1.21,4.21-4.21A142.44,142.44,0,0,0,195.72,51.4c-2.9-2.47-7.14,1.72-4.21,4.21Z"/><path class="cls-2" d="M55.81,52.64c11,1.36,20.83-3.8,30.78-7.67a217.09,217.09,0,0,1,30.87-9.38c8.71-2,5-15.38-3.7-13.4a219.29,219.29,0,0,0-29.14,8.72C75.36,34.42,66,40,55.81,38.75c-3.75-.47-6.91,3.52-6.94,6.94,0,4.14,3.23,6.49,6.94,7Z"/><path class="cls-2" d="M61.91,36.76a32.08,32.08,0,0,1-16.44,4.63c-8.93.08-9,14,0,13.89a46.42,46.42,0,0,0,23.45-6.53c7.68-4.56.7-16.57-7-12Z"/><path class="cls-2" d="M60.81,39.32a28.8,28.8,0,0,1-11.13,1.41c-3.75-.23-6.94,3.36-6.94,6.94a7.06,7.06,0,0,0,6.94,6.95,40,40,0,0,0,14.82-1.9,7.1,7.1,0,0,0,4.86-8.54c-1-3.5-5-6-8.55-4.86Z"/><path class="cls-2" d="M51,43.41l-.32.68,2.49-2.49c-2.38,1.75-8.68,2.55-12.28,2.94s-6.95,2.9-6.95,6.94c0,3.45,3.2,7.35,6.95,7A81.23,81.23,0,0,0,53,56.33c3.74-1,8.19-2.09,10-5.91,1.61-3.38.94-7.49-2.49-9.5-3-1.77-7.88-.91-9.5,2.49Z"/><path class="cls-2" d="M38.92,45.94l-5,2.25a7,7,0,0,0-3.2,4.15,7.14,7.14,0,0,0,.7,5.35,7,7,0,0,0,4.16,3.19,8,8,0,0,0,5.35-.7l5-2.24a7,7,0,0,0,3.19-4.15,7.11,7.11,0,0,0-.7-5.36,7,7,0,0,0-4.15-3.19,8,8,0,0,0-5.35.7Z"/><path class="cls-2" d="M110.57,37.35A217,217,0,0,1,181.38,49c8.48,2.88,12.13-10.53,3.69-13.39a229.26,229.26,0,0,0-74.5-12.11c-8.93,0-8.95,13.93,0,13.89Z"/><path class="cls-2" d="M97,41.09c14.6-3.32,29.83-1.42,44.6-3.84,8.8-1.45,5.06-14.83-3.7-13.4-14.79,2.43-29.87.49-44.59,3.85-8.72,2-5,15.37,3.69,13.39Z"/><path class="cls-2" d="M106.35,42.58l2.63-.11-1.84-13.65L77,33.6,80.72,47a479.69,479.69,0,0,1,78.5-7.86c8.92-.16,8.95-14.06,0-13.89A502.69,502.69,0,0,0,77,33.6C68.17,35.23,72,48.37,80.72,47l30.11-4.77c7.74-1.23,5.9-14-1.85-13.65l-2.63.12c-8.9.38-8.95,14.27,0,13.89Z"/><path class="cls-3" d="M55.66,85A128.31,128.31,0,0,1,68.88,95.72l1-7.79a66.1,66.1,0,0,0-13.69,9.93c-4.67,4.37,2.36,11.37,7,7A55.46,55.46,0,0,1,74.89,96.5a5,5,0,0,0,1-7.8A145.88,145.88,0,0,0,60.66,76.45c-5.23-3.68-10.2,4.92-5,8.56Z"/><path class="cls-3" d="M102,105.65a53.86,53.86,0,0,0,4.58,10.94c1.73,3.07,3.88,7.22,7.63,8,4.19.85,6.22-2.55,8.12-5.61l7.35-11.84c3.37-5.44-5.21-10.42-8.57-5l-4.78,7.69-2.2,3.55L113,115.13q-1.49,2.18,0,.37l3.83-.5c1.28.35-.29-1.06-.75-1.8-.66-1.06-1.27-2.15-1.84-3.26a41,41,0,0,1-2.69-6.92c-1.83-6.11-11.41-3.51-9.57,2.63Z"/><path class="cls-3" d="M160.62,102.05c14.68,0,14.71-22.82,0-22.82s-14.71,22.82,0,22.82Z"/><path class="cls-4" d="M166.38,53.05l7.67,9.7c1.47,1.85,4.76,2.9,7,2.9A9.9,9.9,0,0,0,191,55.73a11.53,11.53,0,0,0-2.9-7L180.41,39c-1.47-1.86-4.77-2.91-7-2.91a10.06,10.06,0,0,0-7,2.91,10,10,0,0,0-2.91,7,11.54,11.54,0,0,0,2.91,7Z"/><path class="cls-4" d="M195.85,86.19c8.3,0,8.31-12.89,0-12.89s-8.31,12.89,0,12.89Z"/></g></g></svg>